<svg height="754" width="1467" xmlns="http://www.w3.org/2000/svg"><path fill="#FFEBA2" stroke="#2D2D2D" d="M44.765 365.608H81.03999999999999V394.039H44.765z"/><path fill="#FFEBA2" stroke="#2D2D2D" stroke-dasharray="null" stroke-linecap="null" stroke-linejoin="null" d="M1193.784 85.216H1206.529V105.804H1193.784z"/><path fill="#FFEBA2" stroke="#2D2D2D" stroke-dasharray="null" stroke-linecap="null" stroke-linejoin="null" d="M1261.431 81.294H1277.117V106.78399999999999H1261.431z"/><path fill="#FFEBA2" stroke="#2D2D2D" stroke-dasharray="null" stroke-linecap="null" stroke-linejoin="null" d="M1098.686 243.059H1177.117V269.53H1098.686z"/><path fill="#FFEBA2" stroke="#2D2D2D" stroke-dasharray="null" stroke-linecap="null" stroke-linejoin="null" d="M1425.157 291.098H1452.608V318.54900000000004H1425.157z"/><path fill="#FFEBA2" stroke="#2D2D2D" stroke-dasharray="null" stroke-linecap="null" stroke-linejoin="null" d="M1184.961 287.176H1316.334V314.627H1184.961z"/><path fill="#FFEBA2" stroke="#2D2D2D" stroke-dasharray="null" stroke-linecap="null" stroke-linejoin="null" d="M1352.608 375.412H1379.079V397.96099999999996H1352.608z"/><path fill="#FFEBA2" stroke="#2D2D2D" stroke-dasharray="null" stroke-linecap="null" stroke-linejoin="null" d="M1067.314 408.745H1084.961V435.216H1067.314z"/><path fill="#FFEBA2" stroke="#2D2D2D" stroke-dasharray="null" stroke-linecap="null" stroke-linejoin="null" d="M1152.608 447.961H1210.451V475.41200000000003H1152.608z"/><path fill="#FFEBA2" stroke="#2D2D2D" stroke-dasharray="null" stroke-linecap="null" stroke-linejoin="null" d="M1330.059 493.059H1381.039V524.432H1330.059z"/><path fill="#FFEBA2" stroke="#2D2D2D" stroke-dasharray="null" stroke-linecap="null" stroke-linejoin="null" d="M1343.784 547.961H1372.2150000000001V571.49H1343.784z"/><path fill="#FFEBA2" stroke="#2D2D2D" stroke-dasharray="null" stroke-linecap="null" stroke-linejoin="null" d="M1188.882 599.922H1245.7450000000001V623.451H1188.882z"/><g fill="#FFEBA2" stroke="#2D2D2D" stroke-dasharray="null" stroke-linecap="null" stroke-linejoin="null"><path d="M1188.882 673.451H1207.509V701.8820000000001H1188.882z"/><path d="M1376.137 673.451H1405.549V696.98H1376.137z"/></g></svg>