<svg height="754" width="1467" xmlns="http://www.w3.org/2000/svg"><path fill="#FFEBA2" stroke="#2D2D2D" d="M44.765 365.608H81.04v28.431H44.765z"/><path fill="#FFEBA2" stroke="#2D2D2D" stroke-dasharray="null" stroke-linecap="null" stroke-linejoin="null" d="M1193.784 85.216h12.745v20.588h-12.745zm67.647-3.922h15.686v25.49h-15.686zm34.314 50h33.333v26.471h-33.333zm-199.019 31.373h19.608v28.431h-19.608zm1.96 80.392h78.431v26.471h-78.431zm326.471 48.039h27.451v27.451h-27.451zm-240.196-3.922h131.373v27.451h-131.373zm-32.353 160.785h57.843v27.451h-57.843zm177.451 45.098h50.98v31.373h-50.98zm13.725 54.902h28.431v23.529h-28.431zm-154.902 51.961h56.863v23.529h-56.863z"/><g fill="#FFEBA2" stroke="#2D2D2D" stroke-dasharray="null" stroke-linecap="null" stroke-linejoin="null"><path d="M1188.882 673.451h18.627v28.431h-18.627zm187.255 0h29.412v23.529h-29.412z"/></g></svg>