<svg height="1042" width="1127" xmlns="http://www.w3.org/2000/svg">
 <!-- Created with Image Occlusion Enhanced -->
 <g>
  <title>Labels</title>
 </g>
 <g>
  <title>Masks</title>
  <rect fill="#FFEBA2" height="40.86956" id="a83b302dc31c46b681fe015ce0af938d-ao-1" stroke="#2D2D2D" width="111.30434" x="213.86951" y="100.60865"/>
  <rect fill="#FFEBA2" height="64.34782" id="a83b302dc31c46b681fe015ce0af938d-ao-2" stroke="#2D2D2D" width="306.08694" x="267.78256" y="157.99995"/>
  <rect fill="#FFEBA2" height="49.56522" id="a83b302dc31c46b681fe015ce0af938d-ao-3" stroke="#2D2D2D" width="174.7826" x="767.78254" y="160.60865"/>
  <rect fill="#FFEBA2" height="60" id="a83b302dc31c46b681fe015ce0af938d-ao-4" stroke="#2D2D2D" width="123.47826" x="270.39125" y="226.6956"/>
  <rect fill="#FFEBA2" height="43.47826" id="a83b302dc31c46b681fe015ce0af938d-ao-5" stroke="#2D2D2D" width="112.17391" x="783.43471" y="236.26082"/>
  <rect fill="#FFEBA2" height="45.21739" id="a83b302dc31c46b681fe015ce0af938d-ao-6" stroke="#2D2D2D" width="154.7826" x="290.39125" y="303.21734"/>
  <rect fill="#FFEBA2" height="44.34782" id="a83b302dc31c46b681fe015ce0af938d-ao-7" stroke="#2D2D2D" width="136.52173" x="814.73906" y="301.47821"/>
  <rect fill="#FFEBA2" height="47.82609" id="a83b302dc31c46b681fe015ce0af938d-ao-8" stroke="#2D2D2D" width="219.13043" x="293.86951" y="364.0869"/>
  <rect fill="#FFEBA2" height="46.08695" id="a83b302dc31c46b681fe015ce0af938d-ao-9" stroke="#2D2D2D" width="191.30434" x="814.73906" y="365.82603"/>
  <rect fill="#FFEBA2" height="53.04348" id="a83b302dc31c46b681fe015ce0af938d-ao-10" stroke="#2D2D2D" width="294.7826" x="301.6956" y="431.91298"/>
  <rect fill="#FFEBA2" height="47.82609" id="a83b302dc31c46b681fe015ce0af938d-ao-11" stroke="#2D2D2D" width="275.65216" x="813.86949" y="431.04342"/>
  <rect fill="#FFEBA2" height="44.34782" id="a83b302dc31c46b681fe015ce0af938d-ao-12" stroke="#2D2D2D" width="131.30434" x="314.73908" y="494.52168"/>
  <rect fill="#FFEBA2" height="46.08695" id="a83b302dc31c46b681fe015ce0af938d-ao-13" stroke="#2D2D2D" width="161.73912" x="827.78254" y="495.39124"/>
  <rect fill="#FFEBA2" height="37.3913" id="a83b302dc31c46b681fe015ce0af938d-ao-14" stroke="#2D2D2D" width="137.3913" x="350.39125" y="567.56515"/>
  <rect fill="#FFEBA2" height="43.47826" id="a83b302dc31c46b681fe015ce0af938d-ao-15" stroke="#2D2D2D" width="158.26086" x="874.73906" y="562.34776"/>
  <rect fill="#FFEBA2" height="45.21739" id="a83b302dc31c46b681fe015ce0af938d-ao-16" stroke="#2D2D2D" width="159.13043" x="270.39125" y="658.8695"/>
  <rect fill="#FFEBA2" height="56.52174" id="a83b302dc31c46b681fe015ce0af938d-ao-17" stroke="#2D2D2D" width="275.65216" x="799.95645" y="654.52167"/>
  <rect fill="#FFEBA2" height="39.13043" id="a83b302dc31c46b681fe015ce0af938d-ao-18" stroke="#2D2D2D" width="184.34782" x="239.95647" y="735.39123"/>
  <rect fill="#FFEBA2" height="61.73913" id="a83b302dc31c46b681fe015ce0af938d-ao-19" stroke="#2D2D2D" width="208.69564" x="775.60862" y="725.82602"/>
  <rect fill="#FFEBA2" height="71.30435" id="a83b302dc31c46b681fe015ce0af938d-ao-20" stroke="#2D2D2D" width="226.08695" x="253.86951" y="787.56514"/>
  <rect fill="#FFEBA2" height="60.86956" id="a83b302dc31c46b681fe015ce0af938d-ao-21" stroke="#2D2D2D" width="304.34781" x="794.73906" y="797.99993"/>
  
  <rect fill="#FFEBA2" height="64.34782" id="a83b302dc31c46b681fe015ce0af938d-ao-23" stroke="#2D2D2D" width="391.30433" x="308.65212" y="944.95644"/>
 </g>
</svg>