<svg height="1042" width="1127" xmlns="http://www.w3.org/2000/svg"><path fill="#FFEBA2" stroke="#2D2D2D" d="M213.87 100.609H325.174V141.47899999999998H213.87z"/><path fill="#FFEBA2" stroke="#2D2D2D" d="M267.783 158H573.87V222.348H267.783z"/><path fill="#FFEBA2" stroke="#2D2D2D" d="M767.783 160.609H942.566V210.174H767.783z"/><path fill="#FFEBA2" stroke="#2D2D2D" d="M270.391 226.696H393.869V286.696H270.391z"/><path fill="#FFEBA2" stroke="#2D2D2D" d="M783.435 236.261H895.6089999999999V279.739H783.435z"/><path fill="#FFEBA2" stroke="#2D2D2D" d="M290.391 303.217H445.174V348.43399999999997H290.391z"/><path fill="#FFEBA2" stroke="#2D2D2D" d="M814.739 301.478H951.261V345.826H814.739z"/><path fill="#FFEBA2" stroke="#2D2D2D" d="M293.87 364.087H513V411.913H293.87z"/><path fill="#FFEBA2" stroke="#2D2D2D" d="M814.739 365.826H1006.043V411.913H814.739z"/><path fill="#FFEBA2" stroke="#2D2D2D" d="M301.696 431.913H596.479V484.956H301.696z"/><path fill="#FFEBA2" stroke="#2D2D2D" d="M813.869 431.043H1089.521V478.869H813.869z"/><path fill="#FFEBA2" stroke="#2D2D2D" d="M314.739 494.522H446.043V538.87H314.739z"/><path fill="#FFEBA2" stroke="#2D2D2D" d="M827.783 495.391H989.522V541.4780000000001H827.783z"/><path fill="#FFEBA2" stroke="#2D2D2D" d="M350.391 567.565H487.78200000000004V604.956H350.391z"/><path fill="#FFEBA2" stroke="#2D2D2D" d="M874.739 562.348H1033V605.8259999999999H874.739z"/><path fill="#FFEBA2" stroke="#2D2D2D" d="M270.391 658.87H429.521V704.087H270.391z"/><path fill="#FFEBA2" stroke="#2D2D2D" d="M799.956 654.522H1075.608V711.0440000000001H799.956z"/><path fill="#FFEBA2" stroke="#2D2D2D" d="M239.956 735.391H424.304V774.521H239.956z"/><path fill="#FFEBA2" stroke="#2D2D2D" d="M775.609 725.826H984.3050000000001V787.565H775.609z"/><path fill="#FFEBA2" stroke="#2D2D2D" d="M253.87 787.565H479.957V858.869H253.87z"/><path fill="#FFEBA2" stroke="#2D2D2D" d="M794.739 798H1099.087V858.87H794.739z"/><path fill="#FFEBA2" stroke="#2D2D2D" d="M279.087 875.391H594.739V931.913H279.087z"/></svg>