<svg height="1042" width="1127" xmlns="http://www.w3.org/2000/svg"><g fill="#ffeba2" stroke="#2d2d2d"><path d="m213.86951 100.60865h111.30434v40.86956h-111.30434z"/><path d="m267.78256 157.99995h306.08694v64.34782h-306.08694z"/><path d="m767.78254 160.60865h174.7826v49.56522h-174.7826z"/><path d="m270.39125 226.6956h123.47826v60h-123.47826z"/><path d="m783.43471 236.26082h112.17391v43.47826h-112.17391z"/><path d="m290.39125 303.21734h154.7826v45.21739h-154.7826z"/><path d="m814.73906 301.47821h136.52173v44.34782h-136.52173z"/><path d="m293.86951 364.0869h219.13043v47.82609h-219.13043z"/><path d="m814.73906 365.82603h191.30434v46.08695h-191.30434z"/><path d="m301.6956 431.91298h294.7826v53.04348h-294.7826z"/><path d="m813.86949 431.04342h275.65216v47.82609h-275.65216z"/><path d="m314.73908 494.52168h131.30434v44.34782h-131.30434z"/><path d="m827.78254 495.39124h161.73912v46.08695h-161.73912z"/><path d="m350.39125 567.56515h137.3913v37.3913h-137.3913z"/><path d="m874.73906 562.34776h158.26086v43.47826h-158.26086z"/><path d="m270.39125 658.8695h159.13043v45.21739h-159.13043z"/><path d="m799.95645 654.52167h275.65216v56.52174h-275.65216z"/><path d="m239.95647 735.39123h184.34782v39.13043h-184.34782z"/><path d="m253.86951 787.56514h226.08695v71.30435h-226.08695z"/><path d="m794.73906 797.99993h304.34781v60.86956h-304.34781z"/><path d="m279.0869 875.39123h315.65216v56.52174h-315.65216z"/><path d="m308.65212 944.95644h391.30433v64.34782h-391.30433z"/></g></svg>