<svg height="1042" width="1127" xmlns="http://www.w3.org/2000/svg"><path fill="#FFEBA2" stroke="#2D2D2D" d="M213.87 100.609h111.304v40.87H213.87zM267.783 158H573.87v64.348H267.783zm500 2.609h174.783v49.565H767.783zm-497.392 66.087h123.478v60H270.391zm513.044 9.565h112.174v43.478H783.435zm-493.044 66.956h154.783v45.217H290.391zm524.348-1.739h136.522v44.348H814.739zM293.87 364.087H513v47.826H293.87zm520.869 1.739h191.304v46.087H814.739zm-513.043 66.087h294.783v53.043H301.696zm512.173-.87h275.652v47.826H813.869zm-499.13 63.479h131.304v44.348H314.739zm513.044.869h161.739v46.087H827.783zm-477.392 72.174h137.391v37.391H350.391zm524.348-5.217H1033v43.478H874.739zM270.391 658.87h159.13v45.217h-159.13zm529.565-4.348h275.652v56.522H799.956zm-560 80.869h184.348v39.13H239.956zm535.653-9.565h208.696v61.739H775.609zM253.87 787.565h226.087v71.304H253.87zM794.739 798h304.348v60.87H794.739z"/><path class="qshape" fill="#FF7E7E" stroke="#2D2D2D" d="M279.087 875.391h315.652v56.522H279.087z"/><path fill="#FFEBA2" stroke="#2D2D2D" d="M308.652 944.956h391.304v64.348H308.652z"/></svg>