<svg height="758" width="1572" xmlns="http://www.w3.org/2000/svg"><g class="qshape"><path class="qshape" fill="#FF7E7E" stroke="#2D2D2D" d="M229.98 558.832H260.673V598.436H229.98z"/><path class="qshape" fill="#FF7E7E" stroke="#2D2D2D" d="M298.297 485.564H340.87100000000004V522.198H298.297z"/><path class="qshape" fill="#FF7E7E" stroke="#2D2D2D" d="M210.178 332.099H257.703V378.634H210.178z"/><path class="qshape" fill="#FF7E7E" stroke="#2D2D2D" d="M302.257 286.554H347.802V322.198H302.257z"/><path class="qshape" fill="#FF7E7E" stroke="#2D2D2D" d="M315.129 209.327H354.733V242.99H315.129z"/><path class="qshape" fill="#FF7E7E" stroke="#2D2D2D" d="M453.743 279.624H491.367V307.34700000000004H453.743z"/><path class="qshape" fill="#FF7E7E" stroke="#2D2D2D" d="M463.644 333.089H504.238V367.742H463.644z"/><path class="qshape" fill="#FF7E7E" stroke="#2D2D2D" d="M542.852 284.574H583.446V322.19800000000004H542.852z"/></g><path fill="#FFEBA2" stroke="#2D2D2D" d="M1005.228 575.663H1043.8419999999999V613.287H1005.228z"/><path fill="#FFEBA2" stroke="#2D2D2D" d="M1006.218 330.119H1049.782V364.77200000000005H1006.218z"/><path fill="#FFEBA2" stroke="#2D2D2D" d="M1106.218 265.762H1136.911V298.435H1106.218z"/><path fill="#FFEBA2" stroke="#2D2D2D" d="M1091.366 325.168H1122.059V356.851H1091.366z"/><path fill="#FFEBA2" stroke="#2D2D2D" d="M1272.555 291.505H1310.179V323.188H1272.555z"/><path fill="#FFEBA2" stroke="#2D2D2D" d="M1122.059 390.515H1160.673V419.228H1122.059z"/><path fill="#FFEBA2" stroke="#2D2D2D" d="M1237.901 458.832H1282.4550000000002V497.44599999999997H1237.901z"/><path fill="#FFEBA2" stroke="#2D2D2D" d="M1091.366 480.614H1129.98V512.297H1091.366z"/></svg>