<svg height="628" width="855" xmlns="http://www.w3.org/2000/svg"><path fill="#FFEBA2" stroke="#2D2D2D" d="M471.136 220.864H472.27200000000005V220.864H471.136z"/><path fill="#FFEBA2" stroke="#2D2D2D" d="M487.045 227.682H487.045V229.95499999999998H487.045z"/><path d="M264.318 186.773c1.137 1.136 0 43.181 2.727 53 2.728 9.818-260.681 9.5-261.363 9.09-.682-.408-.455 32.228-1.137 31.819-.681-.41 843.864 3.818 843.182 3.409-.681-.41-1.59-93.91-2.272-94.318-.682-.41-581.137-3-581.137-3zm4.546 176.136l1.59 59.818-262.5 1.137 1.137 30.681 842.045 7.955v-94.318l-582.272-5.273zm3.409 176.136l-.682 49.591-262.5 7.955 1.136 27.273H850l-2.273-80.682-575.454-4.137z" fill="#FFEBA2" stroke="#2D2D2D" stroke-width="3"/></svg>