<svg height="628" width="855" xmlns="http://www.w3.org/2000/svg">
 <!-- Created with Image Occlusion Enhanced -->
 <g>
  <title>Labels</title>
 </g>
 <g>
  <title>Masks</title>
  
  <rect fill="#FFEBA2" height="2.27273" id="b4751b0385274e28a3fa96b820d7e97c-ao-2" stroke="#2D2D2D" width="0" x="487.04541" y="227.6818"/>
  <path d="m264.31815,186.77271c1.13638,1.13637 0,43.18179 2.72729,53.00002c2.72729,9.81822 -260.68183,9.49998 -261.36362,9.09091c-0.68179,-0.40907 -0.45458,32.22725 -1.13637,31.81819c-0.68179,-0.40906 843.86361,3.81815 843.18184,3.40909c-0.68176,-0.40906 -1.59094,-93.9091 -2.27277,-94.31819c-0.68182,-0.40909 -581.13638,-3.00002 -581.13638,-3.00002z" fill="#FFEBA2" id="b4751b0385274e28a3fa96b820d7e97c-ao-3" stroke="#2D2D2D" stroke-width="3"/>
  <path d="m268.86359,362.90906l1.59097,59.81821l-262.50001,1.13638l1.13636,30.68179l842.04544,7.95456l0,-94.31818l-582.27277,-5.27277z" fill="#FFEBA2" id="b4751b0385274e28a3fa96b820d7e97c-ao-4" stroke="#2D2D2D" stroke-width="3"/>
  <path d="m272.27271,539.04541l-0.68179,49.59094l-262.5,7.95453l1.13636,27.27277l839.77273,0l-2.27271,-80.68182l-575.45459,-4.13641z" fill="#FFEBA2" id="b4751b0385274e28a3fa96b820d7e97c-ao-5" stroke="#2D2D2D" stroke-width="3"/>
 </g>
</svg>