<svg height="599" width="867" xmlns="http://www.w3.org/2000/svg"><path fill="#FFEBA2" stroke="#2D2D2D" d="M571.356 206.479H813.822V258.534H571.356z"/><g class="qshape"><path class="qshape" fill="#FF7E7E" stroke="#2D2D2D" d="M98.753 159.904H249.438V191.411H98.753z"/><path class="qshape" fill="#FF7E7E" stroke="#2D2D2D" d="M100.123 192.781H309.712V221.548H100.123z"/><path class="qshape" fill="#FF7E7E" stroke="#2D2D2D" d="M96.014 227.027H305.603V257.164H96.014z"/></g><path fill="#FFEBA2" stroke="#2D2D2D" d="M639.849 343.466H680.945V377.713H639.849z"/><path fill="#FFEBA2" stroke="#2D2D2D" d="M601.493 409.219H635.74V442.096H601.493z"/><path fill="#FFEBA2" stroke="#2D2D2D" d="M661.767 431.137H691.904V459.904H661.767z"/><path fill="#FFEBA2" stroke="#2D2D2D" d="M639.849 477.712H664.5070000000001V510.589H639.849z"/><path fill="#FFEBA2" stroke="#2D2D2D" d="M748.069 365.384H772.727V395.521H748.069z"/><path fill="#FFEBA2" stroke="#2D2D2D" d="M727.521 416.069H759.0279999999999V443.466H727.521z"/><path fill="#FFEBA2" stroke="#2D2D2D" d="M783.685 428.397H812.452V461.274H783.685z"/><path fill="#FFEBA2" stroke="#2D2D2D" d="M743.959 505.11H778.2059999999999V532.5070000000001H743.959z"/></svg>