<svg height="750" width="1463" xmlns="http://www.w3.org/2000/svg"><path fill="#FFEBA2" stroke="#2D2D2D" d="M336.029 123.786H389.427V150H336.029z"/><path fill="#FFEBA2" stroke="#2D2D2D" d="M557.388 118.932H717.582V150.971H557.388z"/><path fill="#FFEBA2" stroke="#2D2D2D" d="M1052.534 121.845H1106.903V150H1052.534z"/><path fill="#FFEBA2" stroke="#2D2D2D" d="M1366.126 124.757H1417.5819999999999V149.029H1366.126z"/><path fill="#FFEBA2" stroke="#2D2D2D" d="M138.942 168.447H244.767V195.631H138.942z"/><path fill="#FFEBA2" stroke="#2D2D2D" d="M127.291 202.427H182.631V229.611H127.291z"/><path fill="#FFEBA2" stroke="#2D2D2D" d="M270.01 202.427H321.466V228.641H270.01z"/><path class="qshape" fill="#FF7E7E" stroke="#2D2D2D" d="M693.311 202.427H746.7090000000001V230.582H693.311z"/><path fill="#FFEBA2" stroke="#2D2D2D" d="M217.583 248.058H270.01V280.097H217.583z"/><path fill="#FFEBA2" stroke="#2D2D2D" d="M309.816 302.427H363.214V337.37800000000004H309.816z"/><path fill="#FFEBA2" stroke="#2D2D2D" d="M214.67 357.767H270.01V387.864H214.67z"/><path fill="#FFEBA2" stroke="#2D2D2D" d="M309.816 413.107H360.301V441.26200000000006H309.816z"/></svg>