<svg height="809" width="1600" xmlns="http://www.w3.org/2000/svg"><path fill="#FFEBA2" stroke="#2D2D2D" d="M1309.474 96.263H1324.211V122.57900000000001H1309.474z"/><path fill="#FFEBA2" stroke="#2D2D2D" d="M1297.895 261.526H1308.421V292.052H1297.895z"/><path fill="#FFEBA2" stroke="#2D2D2D" d="M1166.316 336.263H1183.1580000000001V364.68399999999997H1166.316z"/><path fill="#FFEBA2" stroke="#2D2D2D" d="M1292.632 387.842H1309.4740000000002V412.053H1292.632z"/><path fill="#FFEBA2" stroke="#2D2D2D" d="M1467.368 383.632H1589.473V417.31600000000003H1467.368z"/><path fill="#FFEBA2" stroke="#2D2D2D" d="M1252.632 515.211H1267.3690000000001V542.5790000000001H1252.632z"/><path fill="#FFEBA2" stroke="#2D2D2D" d="M1272.632 551H1332.632V586.789H1272.632z"/><path fill="#FFEBA2" stroke="#2D2D2D" d="M1526.316 551H1585.263V585.737H1526.316z"/><g fill="#FFEBA2" stroke="#2D2D2D"><path d="M1295.789 641.526H1305.263V668.894H1295.789z"/><path d="M1056.842 676.263H1116.842V704.6840000000001H1056.842z"/><path d="M1193.684 676.263H1255.789V709.947H1193.684z"/></g><g class="qshape"><path class="qshape" fill="#FF7E7E" stroke="#2D2D2D" d="M1283.158 727.842H1302.1049999999998V755.21H1283.158z"/><path class="qshape" fill="#FF7E7E" stroke="#2D2D2D" d="M1365.263 758.368H1501.052V793.105H1365.263z"/><path class="qshape" fill="#FF7E7E" stroke="#2D2D2D" d="M1214.737 761.526H1282.105V789.947H1214.737z"/></g></svg>