<svg height="809" width="1600" xmlns="http://www.w3.org/2000/svg"><path class="qshape" fill="#FF7E7E" stroke="#2D2D2D" d="M1309.474 96.263h14.737v26.316h-14.737z"/><path fill="#FFEBA2" stroke="#2D2D2D" d="M1297.895 261.526h10.526v30.526h-10.526zm-131.579 74.737h16.842v28.421h-16.842zm126.316 51.579h16.842v24.211h-16.842zm174.736-4.21h122.105v33.684h-122.105zm-214.736 131.579h14.737v27.368h-14.737zm20 35.789h60v35.789h-60zm253.684 0h58.947v34.737h-58.947z"/><g fill="#FFEBA2" stroke="#2D2D2D"><path d="M1295.789 641.526h9.474v27.368h-9.474zm-238.947 34.737h60v28.421h-60zm136.842 0h62.105v33.684h-62.105z"/></g><g fill="#FFEBA2" stroke="#2D2D2D"><path d="M1283.158 727.842h18.947v27.368h-18.947zm82.105 30.526h135.789v34.737h-135.789zm-150.526 3.158h67.368v28.421h-67.368z"/></g></svg>